<mxfile host="app.diagrams.net" agent="Mozilla/5.0 (Macintosh; Intel Mac OS X 10_15_7) AppleWebKit/537.36 (KHTML, like Gecko) Chrome/131.0.0.0 Safari/537.36" version="24.9.0">
  <diagram id="C5RBs43oDa-KdzZeNtuy" name="Page-1">
    <mxGraphModel dx="1830" dy="2243" grid="1" gridSize="10" guides="1" tooltips="1" connect="1" arrows="1" fold="1" page="1" pageScale="1" pageWidth="827" pageHeight="1169" math="0" shadow="0">
      <root>
        <mxCell id="WIyWlLk6GJQsqaUBKTNV-0" />
        <mxCell id="WIyWlLk6GJQsqaUBKTNV-1" parent="WIyWlLk6GJQsqaUBKTNV-0" />
        <mxCell id="_mDAV8JQPQ2W9e7fXDTG-19" style="edgeStyle=orthogonalEdgeStyle;rounded=0;orthogonalLoop=1;jettySize=auto;html=1;entryX=0.5;entryY=0;entryDx=0;entryDy=0;" parent="WIyWlLk6GJQsqaUBKTNV-1" source="_mDAV8JQPQ2W9e7fXDTG-0" target="_mDAV8JQPQ2W9e7fXDTG-9" edge="1">
          <mxGeometry relative="1" as="geometry" />
        </mxCell>
        <mxCell id="_mDAV8JQPQ2W9e7fXDTG-0" value="Diario" style="swimlane;fontStyle=0;align=center;verticalAlign=top;childLayout=stackLayout;horizontal=1;startSize=26;horizontalStack=0;resizeParent=1;resizeLast=0;collapsible=1;marginBottom=0;rounded=0;shadow=0;strokeWidth=1;" parent="WIyWlLk6GJQsqaUBKTNV-1" vertex="1">
          <mxGeometry x="600" y="190" width="160" height="78" as="geometry">
            <mxRectangle x="550" y="140" width="160" height="26" as="alternateBounds" />
          </mxGeometry>
        </mxCell>
        <mxCell id="_mDAV8JQPQ2W9e7fXDTG-2" value="ArrayList&lt;Restaurante&gt;Â " style="text;align=left;verticalAlign=top;spacingLeft=4;spacingRight=4;overflow=hidden;rotatable=0;points=[[0,0.5],[1,0.5]];portConstraint=eastwest;rounded=0;shadow=0;html=0;" parent="_mDAV8JQPQ2W9e7fXDTG-0" vertex="1">
          <mxGeometry y="26" width="160" height="26" as="geometry" />
        </mxCell>
        <mxCell id="_mDAV8JQPQ2W9e7fXDTG-6" value="" style="line;html=1;strokeWidth=1;align=left;verticalAlign=middle;spacingTop=-1;spacingLeft=3;spacingRight=3;rotatable=0;labelPosition=right;points=[];portConstraint=eastwest;" parent="_mDAV8JQPQ2W9e7fXDTG-0" vertex="1">
          <mxGeometry y="52" width="160" height="8" as="geometry" />
        </mxCell>
        <mxCell id="_mDAV8JQPQ2W9e7fXDTG-9" value="Restaurante" style="swimlane;fontStyle=0;align=center;verticalAlign=top;childLayout=stackLayout;horizontal=1;startSize=26;horizontalStack=0;resizeParent=1;resizeLast=0;collapsible=1;marginBottom=0;rounded=0;shadow=0;strokeWidth=1;" parent="WIyWlLk6GJQsqaUBKTNV-1" vertex="1">
          <mxGeometry x="600" y="330" width="160" height="180" as="geometry">
            <mxRectangle x="550" y="140" width="160" height="26" as="alternateBounds" />
          </mxGeometry>
        </mxCell>
        <mxCell id="_mDAV8JQPQ2W9e7fXDTG-10" value="String nombre" style="text;align=left;verticalAlign=top;spacingLeft=4;spacingRight=4;overflow=hidden;rotatable=0;points=[[0,0.5],[1,0.5]];portConstraint=eastwest;" parent="_mDAV8JQPQ2W9e7fXDTG-9" vertex="1">
          <mxGeometry y="26" width="160" height="26" as="geometry" />
        </mxCell>
        <mxCell id="_mDAV8JQPQ2W9e7fXDTG-11" value="int calificacion" style="text;align=left;verticalAlign=top;spacingLeft=4;spacingRight=4;overflow=hidden;rotatable=0;points=[[0,0.5],[1,0.5]];portConstraint=eastwest;rounded=0;shadow=0;html=0;" parent="_mDAV8JQPQ2W9e7fXDTG-9" vertex="1">
          <mxGeometry y="52" width="160" height="26" as="geometry" />
        </mxCell>
        <mxCell id="_mDAV8JQPQ2W9e7fXDTG-12" value="int coordenadaX" style="text;align=left;verticalAlign=top;spacingLeft=4;spacingRight=4;overflow=hidden;rotatable=0;points=[[0,0.5],[1,0.5]];portConstraint=eastwest;rounded=0;shadow=0;html=0;" parent="_mDAV8JQPQ2W9e7fXDTG-9" vertex="1">
          <mxGeometry y="78" width="160" height="26" as="geometry" />
        </mxCell>
        <mxCell id="_mDAV8JQPQ2W9e7fXDTG-13" value="int coordenadaY" style="text;align=left;verticalAlign=top;spacingLeft=4;spacingRight=4;overflow=hidden;rotatable=0;points=[[0,0.5],[1,0.5]];portConstraint=eastwest;rounded=0;shadow=0;html=0;" parent="_mDAV8JQPQ2W9e7fXDTG-9" vertex="1">
          <mxGeometry y="104" width="160" height="26" as="geometry" />
        </mxCell>
        <mxCell id="_mDAV8JQPQ2W9e7fXDTG-14" value="boolean visitado" style="text;align=left;verticalAlign=top;spacingLeft=4;spacingRight=4;overflow=hidden;rotatable=0;points=[[0,0.5],[1,0.5]];portConstraint=eastwest;rounded=0;shadow=0;html=0;" parent="_mDAV8JQPQ2W9e7fXDTG-9" vertex="1">
          <mxGeometry y="130" width="160" height="26" as="geometry" />
        </mxCell>
        <mxCell id="_mDAV8JQPQ2W9e7fXDTG-15" value="" style="line;html=1;strokeWidth=1;align=left;verticalAlign=middle;spacingTop=-1;spacingLeft=3;spacingRight=3;rotatable=0;labelPosition=right;points=[];portConstraint=eastwest;" parent="_mDAV8JQPQ2W9e7fXDTG-9" vertex="1">
          <mxGeometry y="156" width="160" height="8" as="geometry" />
        </mxCell>
        <mxCell id="_mDAV8JQPQ2W9e7fXDTG-20" value="*" style="text;html=1;align=center;verticalAlign=middle;resizable=0;points=[];autosize=1;strokeColor=none;fillColor=none;" parent="WIyWlLk6GJQsqaUBKTNV-1" vertex="1">
          <mxGeometry x="680" y="300" width="30" height="30" as="geometry" />
        </mxCell>
        <mxCell id="_mDAV8JQPQ2W9e7fXDTG-21" value="JFrame" style="swimlane;fontStyle=2;align=center;verticalAlign=top;childLayout=stackLayout;horizontal=1;startSize=26;horizontalStack=0;resizeParent=1;resizeLast=0;collapsible=1;marginBottom=0;rounded=0;shadow=0;strokeWidth=1;" parent="WIyWlLk6GJQsqaUBKTNV-1" vertex="1" collapsed="1">
          <mxGeometry x="380" y="-260" width="160" height="26" as="geometry">
            <mxRectangle x="470" y="-340" width="160" height="40" as="alternateBounds" />
          </mxGeometry>
        </mxCell>
        <mxCell id="_mDAV8JQPQ2W9e7fXDTG-25" value="" style="line;html=1;strokeWidth=1;align=left;verticalAlign=middle;spacingTop=-1;spacingLeft=3;spacingRight=3;rotatable=0;labelPosition=right;points=[];portConstraint=eastwest;" parent="_mDAV8JQPQ2W9e7fXDTG-21" vertex="1">
          <mxGeometry y="26" width="160" height="8" as="geometry" />
        </mxCell>
        <mxCell id="_mDAV8JQPQ2W9e7fXDTG-33" style="edgeStyle=orthogonalEdgeStyle;rounded=0;orthogonalLoop=1;jettySize=auto;html=1;entryX=0.5;entryY=1;entryDx=0;entryDy=0;endArrow=blockThin;endFill=0;" parent="WIyWlLk6GJQsqaUBKTNV-1" source="_mDAV8JQPQ2W9e7fXDTG-27" target="_mDAV8JQPQ2W9e7fXDTG-21" edge="1">
          <mxGeometry relative="1" as="geometry">
            <Array as="points">
              <mxPoint x="600" y="-140" />
              <mxPoint x="460" y="-140" />
            </Array>
          </mxGeometry>
        </mxCell>
        <mxCell id="_mDAV8JQPQ2W9e7fXDTG-82" value="extends" style="edgeLabel;html=1;align=center;verticalAlign=middle;resizable=0;points=[];" parent="_mDAV8JQPQ2W9e7fXDTG-33" vertex="1" connectable="0">
          <mxGeometry x="0.4676" y="2" relative="1" as="geometry">
            <mxPoint as="offset" />
          </mxGeometry>
        </mxCell>
        <mxCell id="_mDAV8JQPQ2W9e7fXDTG-27" value="VentanaPrincipal" style="swimlane;fontStyle=2;align=center;verticalAlign=top;childLayout=stackLayout;horizontal=1;startSize=26;horizontalStack=0;resizeParent=1;resizeLast=0;collapsible=1;marginBottom=0;rounded=0;shadow=0;strokeWidth=1;" parent="WIyWlLk6GJQsqaUBKTNV-1" vertex="1">
          <mxGeometry x="590" y="-110" width="210" height="164" as="geometry">
            <mxRectangle x="230" y="140" width="160" height="26" as="alternateBounds" />
          </mxGeometry>
        </mxCell>
        <mxCell id="_mDAV8JQPQ2W9e7fXDTG-28" value="Diario mundo" style="text;align=left;verticalAlign=top;spacingLeft=4;spacingRight=4;overflow=hidden;rotatable=0;points=[[0,0.5],[1,0.5]];portConstraint=eastwest;" parent="_mDAV8JQPQ2W9e7fXDTG-27" vertex="1">
          <mxGeometry y="26" width="210" height="26" as="geometry" />
        </mxCell>
        <mxCell id="_mDAV8JQPQ2W9e7fXDTG-29" value="PanelBotones pBotones" style="text;align=left;verticalAlign=top;spacingLeft=4;spacingRight=4;overflow=hidden;rotatable=0;points=[[0,0.5],[1,0.5]];portConstraint=eastwest;rounded=0;shadow=0;html=0;" parent="_mDAV8JQPQ2W9e7fXDTG-27" vertex="1">
          <mxGeometry y="52" width="210" height="26" as="geometry" />
        </mxCell>
        <mxCell id="_mDAV8JQPQ2W9e7fXDTG-30" value="PanelDetallesRestaurante pDetalles" style="text;align=left;verticalAlign=top;spacingLeft=4;spacingRight=4;overflow=hidden;rotatable=0;points=[[0,0.5],[1,0.5]];portConstraint=eastwest;rounded=0;shadow=0;html=0;" parent="_mDAV8JQPQ2W9e7fXDTG-27" vertex="1">
          <mxGeometry y="78" width="210" height="26" as="geometry" />
        </mxCell>
        <mxCell id="_mDAV8JQPQ2W9e7fXDTG-39" value="PanelLista pLista" style="text;align=left;verticalAlign=top;spacingLeft=4;spacingRight=4;overflow=hidden;rotatable=0;points=[[0,0.5],[1,0.5]];portConstraint=eastwest;rounded=0;shadow=0;html=0;" parent="_mDAV8JQPQ2W9e7fXDTG-27" vertex="1">
          <mxGeometry y="104" width="210" height="26" as="geometry" />
        </mxCell>
        <mxCell id="_mDAV8JQPQ2W9e7fXDTG-36" value="VentanaMapa ventanaMapa" style="text;align=left;verticalAlign=top;spacingLeft=4;spacingRight=4;overflow=hidden;rotatable=0;points=[[0,0.5],[1,0.5]];portConstraint=eastwest;rounded=0;shadow=0;html=0;" parent="_mDAV8JQPQ2W9e7fXDTG-27" vertex="1">
          <mxGeometry y="130" width="210" height="26" as="geometry" />
        </mxCell>
        <mxCell id="_mDAV8JQPQ2W9e7fXDTG-31" value="" style="line;html=1;strokeWidth=1;align=left;verticalAlign=middle;spacingTop=-1;spacingLeft=3;spacingRight=3;rotatable=0;labelPosition=right;points=[];portConstraint=eastwest;" parent="_mDAV8JQPQ2W9e7fXDTG-27" vertex="1">
          <mxGeometry y="156" width="210" height="8" as="geometry" />
        </mxCell>
        <mxCell id="_mDAV8JQPQ2W9e7fXDTG-38" style="edgeStyle=orthogonalEdgeStyle;rounded=0;orthogonalLoop=1;jettySize=auto;html=1;entryX=0.591;entryY=-0.023;entryDx=0;entryDy=0;entryPerimeter=0;" parent="WIyWlLk6GJQsqaUBKTNV-1" source="_mDAV8JQPQ2W9e7fXDTG-27" target="_mDAV8JQPQ2W9e7fXDTG-0" edge="1">
          <mxGeometry relative="1" as="geometry" />
        </mxCell>
        <mxCell id="_mDAV8JQPQ2W9e7fXDTG-48" style="edgeStyle=orthogonalEdgeStyle;rounded=0;orthogonalLoop=1;jettySize=auto;html=1;entryX=0;entryY=0.5;entryDx=0;entryDy=0;" parent="WIyWlLk6GJQsqaUBKTNV-1" source="_mDAV8JQPQ2W9e7fXDTG-40" target="_mDAV8JQPQ2W9e7fXDTG-12" edge="1">
          <mxGeometry relative="1" as="geometry" />
        </mxCell>
        <mxCell id="_mDAV8JQPQ2W9e7fXDTG-40" value="PanelLista" style="swimlane;fontStyle=0;align=center;verticalAlign=top;childLayout=stackLayout;horizontal=1;startSize=26;horizontalStack=0;resizeParent=1;resizeLast=0;collapsible=1;marginBottom=0;rounded=0;shadow=0;strokeWidth=1;" parent="WIyWlLk6GJQsqaUBKTNV-1" vertex="1">
          <mxGeometry x="20" y="-80" width="276" height="120" as="geometry">
            <mxRectangle x="194" y="-110" width="160" height="26" as="alternateBounds" />
          </mxGeometry>
        </mxCell>
        <mxCell id="_mDAV8JQPQ2W9e7fXDTG-41" value="JList&lt;Restaurante&gt; listaDeRestaurante" style="text;align=left;verticalAlign=top;spacingLeft=4;spacingRight=4;overflow=hidden;rotatable=0;points=[[0,0.5],[1,0.5]];portConstraint=eastwest;" parent="_mDAV8JQPQ2W9e7fXDTG-40" vertex="1">
          <mxGeometry y="26" width="276" height="26" as="geometry" />
        </mxCell>
        <mxCell id="_mDAV8JQPQ2W9e7fXDTG-42" value="DefaultListModel&lt;Restaurante&gt; dataModel" style="text;align=left;verticalAlign=top;spacingLeft=4;spacingRight=4;overflow=hidden;rotatable=0;points=[[0,0.5],[1,0.5]];portConstraint=eastwest;rounded=0;shadow=0;html=0;" parent="_mDAV8JQPQ2W9e7fXDTG-40" vertex="1">
          <mxGeometry y="52" width="276" height="26" as="geometry" />
        </mxCell>
        <mxCell id="_mDAV8JQPQ2W9e7fXDTG-43" value="VentanaPrincipal ventanaPrincipal" style="text;align=left;verticalAlign=top;spacingLeft=4;spacingRight=4;overflow=hidden;rotatable=0;points=[[0,0.5],[1,0.5]];portConstraint=eastwest;rounded=0;shadow=0;html=0;" parent="_mDAV8JQPQ2W9e7fXDTG-40" vertex="1">
          <mxGeometry y="78" width="276" height="26" as="geometry" />
        </mxCell>
        <mxCell id="_mDAV8JQPQ2W9e7fXDTG-44" value="" style="line;html=1;strokeWidth=1;align=left;verticalAlign=middle;spacingTop=-1;spacingLeft=3;spacingRight=3;rotatable=0;labelPosition=right;points=[];portConstraint=eastwest;" parent="_mDAV8JQPQ2W9e7fXDTG-40" vertex="1">
          <mxGeometry y="104" width="276" height="8" as="geometry" />
        </mxCell>
        <mxCell id="_mDAV8JQPQ2W9e7fXDTG-47" style="edgeStyle=orthogonalEdgeStyle;rounded=0;orthogonalLoop=1;jettySize=auto;html=1;entryX=1;entryY=0.154;entryDx=0;entryDy=0;entryPerimeter=0;startArrow=block;startFill=1;" parent="WIyWlLk6GJQsqaUBKTNV-1" source="_mDAV8JQPQ2W9e7fXDTG-27" target="_mDAV8JQPQ2W9e7fXDTG-43" edge="1">
          <mxGeometry relative="1" as="geometry" />
        </mxCell>
        <mxCell id="_mDAV8JQPQ2W9e7fXDTG-49" value="&lt;&lt;interface&gt;&gt;&#xa;ListSelectionListener" style="swimlane;fontStyle=0;align=center;verticalAlign=top;childLayout=stackLayout;horizontal=1;startSize=40;horizontalStack=0;resizeParent=1;resizeLast=0;collapsible=1;marginBottom=0;rounded=0;shadow=0;strokeWidth=1;" parent="WIyWlLk6GJQsqaUBKTNV-1" vertex="1" collapsed="1">
          <mxGeometry x="10" y="-250" width="160" height="40" as="geometry">
            <mxRectangle x="230" y="-340" width="160" height="40" as="alternateBounds" />
          </mxGeometry>
        </mxCell>
        <mxCell id="_mDAV8JQPQ2W9e7fXDTG-50" value="" style="line;html=1;strokeWidth=1;align=left;verticalAlign=middle;spacingTop=-1;spacingLeft=3;spacingRight=3;rotatable=0;labelPosition=right;points=[];portConstraint=eastwest;" parent="_mDAV8JQPQ2W9e7fXDTG-49" vertex="1">
          <mxGeometry y="26" width="160" height="8" as="geometry" />
        </mxCell>
        <mxCell id="_mDAV8JQPQ2W9e7fXDTG-51" style="edgeStyle=orthogonalEdgeStyle;rounded=0;orthogonalLoop=1;jettySize=auto;html=1;entryX=0.636;entryY=1.086;entryDx=0;entryDy=0;entryPerimeter=0;" parent="WIyWlLk6GJQsqaUBKTNV-1" edge="1">
          <mxGeometry relative="1" as="geometry">
            <mxPoint x="70" y="-80" as="sourcePoint" />
            <mxPoint x="73.75999999999999" y="-206.55999999999995" as="targetPoint" />
            <Array as="points">
              <mxPoint x="70" y="-79" />
              <mxPoint x="74" y="-79" />
            </Array>
          </mxGeometry>
        </mxCell>
        <mxCell id="_mDAV8JQPQ2W9e7fXDTG-52" value="implements" style="edgeLabel;html=1;align=center;verticalAlign=middle;resizable=0;points=[];" parent="_mDAV8JQPQ2W9e7fXDTG-51" vertex="1" connectable="0">
          <mxGeometry x="0.3958" y="1" relative="1" as="geometry">
            <mxPoint as="offset" />
          </mxGeometry>
        </mxCell>
        <mxCell id="_mDAV8JQPQ2W9e7fXDTG-53" value="PanelDetallesRestaurante" style="swimlane;fontStyle=0;align=center;verticalAlign=top;childLayout=stackLayout;horizontal=1;startSize=26;horizontalStack=0;resizeParent=1;resizeLast=0;collapsible=1;marginBottom=0;rounded=0;shadow=0;strokeWidth=1;" parent="WIyWlLk6GJQsqaUBKTNV-1" vertex="1">
          <mxGeometry x="920" y="80" width="200" height="120" as="geometry">
            <mxRectangle x="194" y="-110" width="160" height="26" as="alternateBounds" />
          </mxGeometry>
        </mxCell>
        <mxCell id="_mDAV8JQPQ2W9e7fXDTG-54" value="JLabel labnombre" style="text;align=left;verticalAlign=top;spacingLeft=4;spacingRight=4;overflow=hidden;rotatable=0;points=[[0,0.5],[1,0.5]];portConstraint=eastwest;" parent="_mDAV8JQPQ2W9e7fXDTG-53" vertex="1">
          <mxGeometry y="26" width="200" height="26" as="geometry" />
        </mxCell>
        <mxCell id="_mDAV8JQPQ2W9e7fXDTG-55" value="JLabel labCalificacion" style="text;align=left;verticalAlign=top;spacingLeft=4;spacingRight=4;overflow=hidden;rotatable=0;points=[[0,0.5],[1,0.5]];portConstraint=eastwest;rounded=0;shadow=0;html=0;" parent="_mDAV8JQPQ2W9e7fXDTG-53" vertex="1">
          <mxGeometry y="52" width="200" height="26" as="geometry" />
        </mxCell>
        <mxCell id="_mDAV8JQPQ2W9e7fXDTG-56" value="JCheckbox" style="text;align=left;verticalAlign=top;spacingLeft=4;spacingRight=4;overflow=hidden;rotatable=0;points=[[0,0.5],[1,0.5]];portConstraint=eastwest;rounded=0;shadow=0;html=0;" parent="_mDAV8JQPQ2W9e7fXDTG-53" vertex="1">
          <mxGeometry y="78" width="200" height="26" as="geometry" />
        </mxCell>
        <mxCell id="_mDAV8JQPQ2W9e7fXDTG-57" value="" style="line;html=1;strokeWidth=1;align=left;verticalAlign=middle;spacingTop=-1;spacingLeft=3;spacingRight=3;rotatable=0;labelPosition=right;points=[];portConstraint=eastwest;" parent="_mDAV8JQPQ2W9e7fXDTG-53" vertex="1">
          <mxGeometry y="104" width="200" height="8" as="geometry" />
        </mxCell>
        <mxCell id="_mDAV8JQPQ2W9e7fXDTG-59" style="edgeStyle=orthogonalEdgeStyle;rounded=0;orthogonalLoop=1;jettySize=auto;html=1;entryX=-0.017;entryY=0.228;entryDx=0;entryDy=0;entryPerimeter=0;" parent="WIyWlLk6GJQsqaUBKTNV-1" source="_mDAV8JQPQ2W9e7fXDTG-27" target="_mDAV8JQPQ2W9e7fXDTG-55" edge="1">
          <mxGeometry relative="1" as="geometry" />
        </mxCell>
        <mxCell id="_mDAV8JQPQ2W9e7fXDTG-74" style="edgeStyle=orthogonalEdgeStyle;rounded=0;orthogonalLoop=1;jettySize=auto;html=1;entryX=0.5;entryY=1;entryDx=0;entryDy=0;" parent="WIyWlLk6GJQsqaUBKTNV-1" source="_mDAV8JQPQ2W9e7fXDTG-60" target="_mDAV8JQPQ2W9e7fXDTG-72" edge="1">
          <mxGeometry relative="1" as="geometry" />
        </mxCell>
        <mxCell id="_mDAV8JQPQ2W9e7fXDTG-75" value="implements" style="edgeLabel;html=1;align=center;verticalAlign=middle;resizable=0;points=[];" parent="_mDAV8JQPQ2W9e7fXDTG-74" vertex="1" connectable="0">
          <mxGeometry x="0.6495" y="-2" relative="1" as="geometry">
            <mxPoint as="offset" />
          </mxGeometry>
        </mxCell>
        <mxCell id="_mDAV8JQPQ2W9e7fXDTG-60" value="PanelBotones" style="swimlane;fontStyle=0;align=center;verticalAlign=top;childLayout=stackLayout;horizontal=1;startSize=26;horizontalStack=0;resizeParent=1;resizeLast=0;collapsible=1;marginBottom=0;rounded=0;shadow=0;strokeWidth=1;" parent="WIyWlLk6GJQsqaUBKTNV-1" vertex="1">
          <mxGeometry x="920" y="-119" width="200" height="139" as="geometry">
            <mxRectangle x="194" y="-110" width="160" height="26" as="alternateBounds" />
          </mxGeometry>
        </mxCell>
        <mxCell id="_mDAV8JQPQ2W9e7fXDTG-61" value="String NUEVO" style="text;align=left;verticalAlign=top;spacingLeft=4;spacingRight=4;overflow=hidden;rotatable=0;points=[[0,0.5],[1,0.5]];portConstraint=eastwest;" parent="_mDAV8JQPQ2W9e7fXDTG-60" vertex="1">
          <mxGeometry y="26" width="200" height="26" as="geometry" />
        </mxCell>
        <mxCell id="_mDAV8JQPQ2W9e7fXDTG-62" value="String VER" style="text;align=left;verticalAlign=top;spacingLeft=4;spacingRight=4;overflow=hidden;rotatable=0;points=[[0,0.5],[1,0.5]];portConstraint=eastwest;rounded=0;shadow=0;html=0;" parent="_mDAV8JQPQ2W9e7fXDTG-60" vertex="1">
          <mxGeometry y="52" width="200" height="26" as="geometry" />
        </mxCell>
        <mxCell id="_mDAV8JQPQ2W9e7fXDTG-63" value="JButton butNuevo" style="text;align=left;verticalAlign=top;spacingLeft=4;spacingRight=4;overflow=hidden;rotatable=0;points=[[0,0.5],[1,0.5]];portConstraint=eastwest;rounded=0;shadow=0;html=0;" parent="_mDAV8JQPQ2W9e7fXDTG-60" vertex="1">
          <mxGeometry y="78" width="200" height="26" as="geometry" />
        </mxCell>
        <mxCell id="_mDAV8JQPQ2W9e7fXDTG-69" value="VentanaPrincipal ventanaPrincipal" style="text;align=left;verticalAlign=top;spacingLeft=4;spacingRight=4;overflow=hidden;rotatable=0;points=[[0,0.5],[1,0.5]];portConstraint=eastwest;rounded=0;shadow=0;html=0;" parent="_mDAV8JQPQ2W9e7fXDTG-60" vertex="1">
          <mxGeometry y="104" width="200" height="26" as="geometry" />
        </mxCell>
        <mxCell id="_mDAV8JQPQ2W9e7fXDTG-64" value="" style="line;html=1;strokeWidth=1;align=left;verticalAlign=middle;spacingTop=-1;spacingLeft=3;spacingRight=3;rotatable=0;labelPosition=right;points=[];portConstraint=eastwest;" parent="_mDAV8JQPQ2W9e7fXDTG-60" vertex="1">
          <mxGeometry y="130" width="200" height="8" as="geometry" />
        </mxCell>
        <mxCell id="_mDAV8JQPQ2W9e7fXDTG-65" style="edgeStyle=orthogonalEdgeStyle;rounded=0;orthogonalLoop=1;jettySize=auto;html=1;startArrow=classic;startFill=1;exitX=0;exitY=0.154;exitDx=0;exitDy=0;exitPerimeter=0;" parent="WIyWlLk6GJQsqaUBKTNV-1" source="_mDAV8JQPQ2W9e7fXDTG-63" edge="1">
          <mxGeometry relative="1" as="geometry">
            <mxPoint x="800" y="-37" as="targetPoint" />
          </mxGeometry>
        </mxCell>
        <mxCell id="_mDAV8JQPQ2W9e7fXDTG-66" style="edgeStyle=orthogonalEdgeStyle;rounded=0;orthogonalLoop=1;jettySize=auto;html=1;exitX=1;exitY=0;exitDx=0;exitDy=0;entryX=0.999;entryY=0.083;entryDx=0;entryDy=0;entryPerimeter=0;" parent="WIyWlLk6GJQsqaUBKTNV-1" source="_mDAV8JQPQ2W9e7fXDTG-53" target="_mDAV8JQPQ2W9e7fXDTG-53" edge="1">
          <mxGeometry relative="1" as="geometry" />
        </mxCell>
        <mxCell id="_mDAV8JQPQ2W9e7fXDTG-72" value="&lt;&lt;interface&gt;&gt;&#xa;ActionListener" style="swimlane;fontStyle=0;align=center;verticalAlign=top;childLayout=stackLayout;horizontal=1;startSize=40;horizontalStack=0;resizeParent=1;resizeLast=0;collapsible=1;marginBottom=0;rounded=0;shadow=0;strokeWidth=1;" parent="WIyWlLk6GJQsqaUBKTNV-1" vertex="1" collapsed="1">
          <mxGeometry x="940" y="-240.5" width="160" height="40" as="geometry">
            <mxRectangle x="230" y="-340" width="160" height="40" as="alternateBounds" />
          </mxGeometry>
        </mxCell>
        <mxCell id="_mDAV8JQPQ2W9e7fXDTG-73" value="" style="line;html=1;strokeWidth=1;align=left;verticalAlign=middle;spacingTop=-1;spacingLeft=3;spacingRight=3;rotatable=0;labelPosition=right;points=[];portConstraint=eastwest;" parent="_mDAV8JQPQ2W9e7fXDTG-72" vertex="1">
          <mxGeometry y="26" width="160" height="8" as="geometry" />
        </mxCell>
        <mxCell id="_mDAV8JQPQ2W9e7fXDTG-85" style="edgeStyle=orthogonalEdgeStyle;rounded=0;orthogonalLoop=1;jettySize=auto;html=1;endArrow=block;endFill=0;" parent="WIyWlLk6GJQsqaUBKTNV-1" source="_mDAV8JQPQ2W9e7fXDTG-76" edge="1">
          <mxGeometry relative="1" as="geometry">
            <mxPoint x="460" y="-260" as="targetPoint" />
            <Array as="points">
              <mxPoint x="460" y="-290" />
            </Array>
          </mxGeometry>
        </mxCell>
        <mxCell id="_mDAV8JQPQ2W9e7fXDTG-86" value="extends" style="edgeLabel;html=1;align=center;verticalAlign=middle;resizable=0;points=[];" parent="_mDAV8JQPQ2W9e7fXDTG-85" vertex="1" connectable="0">
          <mxGeometry x="0.4103" y="-2" relative="1" as="geometry">
            <mxPoint as="offset" />
          </mxGeometry>
        </mxCell>
        <mxCell id="_mDAV8JQPQ2W9e7fXDTG-76" value="PanelBotones" style="swimlane;fontStyle=0;align=center;verticalAlign=top;childLayout=stackLayout;horizontal=1;startSize=26;horizontalStack=0;resizeParent=1;resizeLast=0;collapsible=1;marginBottom=0;rounded=0;shadow=0;strokeWidth=1;" parent="WIyWlLk6GJQsqaUBKTNV-1" vertex="1">
          <mxGeometry x="610" y="-290" width="200" height="139" as="geometry">
            <mxRectangle x="194" y="-110" width="160" height="26" as="alternateBounds" />
          </mxGeometry>
        </mxCell>
        <mxCell id="_mDAV8JQPQ2W9e7fXDTG-77" value="String NUEVO" style="text;align=left;verticalAlign=top;spacingLeft=4;spacingRight=4;overflow=hidden;rotatable=0;points=[[0,0.5],[1,0.5]];portConstraint=eastwest;" parent="_mDAV8JQPQ2W9e7fXDTG-76" vertex="1">
          <mxGeometry y="26" width="200" height="26" as="geometry" />
        </mxCell>
        <mxCell id="_mDAV8JQPQ2W9e7fXDTG-78" value="String VER" style="text;align=left;verticalAlign=top;spacingLeft=4;spacingRight=4;overflow=hidden;rotatable=0;points=[[0,0.5],[1,0.5]];portConstraint=eastwest;rounded=0;shadow=0;html=0;" parent="_mDAV8JQPQ2W9e7fXDTG-76" vertex="1">
          <mxGeometry y="52" width="200" height="26" as="geometry" />
        </mxCell>
        <mxCell id="_mDAV8JQPQ2W9e7fXDTG-79" value="JButton butNuevo" style="text;align=left;verticalAlign=top;spacingLeft=4;spacingRight=4;overflow=hidden;rotatable=0;points=[[0,0.5],[1,0.5]];portConstraint=eastwest;rounded=0;shadow=0;html=0;" parent="_mDAV8JQPQ2W9e7fXDTG-76" vertex="1">
          <mxGeometry y="78" width="200" height="26" as="geometry" />
        </mxCell>
        <mxCell id="_mDAV8JQPQ2W9e7fXDTG-80" value="VentanaPrincipal ventanaPrincipal" style="text;align=left;verticalAlign=top;spacingLeft=4;spacingRight=4;overflow=hidden;rotatable=0;points=[[0,0.5],[1,0.5]];portConstraint=eastwest;rounded=0;shadow=0;html=0;" parent="_mDAV8JQPQ2W9e7fXDTG-76" vertex="1">
          <mxGeometry y="104" width="200" height="26" as="geometry" />
        </mxCell>
        <mxCell id="_mDAV8JQPQ2W9e7fXDTG-81" value="" style="line;html=1;strokeWidth=1;align=left;verticalAlign=middle;spacingTop=-1;spacingLeft=3;spacingRight=3;rotatable=0;labelPosition=right;points=[];portConstraint=eastwest;" parent="_mDAV8JQPQ2W9e7fXDTG-76" vertex="1">
          <mxGeometry y="130" width="200" height="8" as="geometry" />
        </mxCell>
        <mxCell id="_mDAV8JQPQ2W9e7fXDTG-96" style="edgeStyle=orthogonalEdgeStyle;rounded=0;orthogonalLoop=1;jettySize=auto;html=1;entryX=0.5;entryY=0;entryDx=0;entryDy=0;" parent="WIyWlLk6GJQsqaUBKTNV-1" source="_mDAV8JQPQ2W9e7fXDTG-90" target="_mDAV8JQPQ2W9e7fXDTG-72" edge="1">
          <mxGeometry relative="1" as="geometry" />
        </mxCell>
        <mxCell id="_mDAV8JQPQ2W9e7fXDTG-99" value="implements" style="edgeLabel;html=1;align=center;verticalAlign=middle;resizable=0;points=[];" parent="_mDAV8JQPQ2W9e7fXDTG-96" vertex="1" connectable="0">
          <mxGeometry x="-0.1635" y="-1" relative="1" as="geometry">
            <mxPoint x="-1" as="offset" />
          </mxGeometry>
        </mxCell>
        <mxCell id="_mDAV8JQPQ2W9e7fXDTG-97" style="edgeStyle=orthogonalEdgeStyle;rounded=0;orthogonalLoop=1;jettySize=auto;html=1;endArrow=block;endFill=0;" parent="WIyWlLk6GJQsqaUBKTNV-1" source="_mDAV8JQPQ2W9e7fXDTG-90" edge="1">
          <mxGeometry relative="1" as="geometry">
            <mxPoint x="460" y="-260" as="targetPoint" />
          </mxGeometry>
        </mxCell>
        <mxCell id="_mDAV8JQPQ2W9e7fXDTG-98" value="Extends" style="edgeLabel;html=1;align=center;verticalAlign=middle;resizable=0;points=[];" parent="_mDAV8JQPQ2W9e7fXDTG-97" vertex="1" connectable="0">
          <mxGeometry x="0.0654" y="-1" relative="1" as="geometry">
            <mxPoint as="offset" />
          </mxGeometry>
        </mxCell>
        <mxCell id="_mDAV8JQPQ2W9e7fXDTG-90" value="VentanaMapa" style="swimlane;fontStyle=0;align=center;verticalAlign=top;childLayout=stackLayout;horizontal=1;startSize=26;horizontalStack=0;resizeParent=1;resizeLast=0;collapsible=1;marginBottom=0;rounded=0;shadow=0;strokeWidth=1;" parent="WIyWlLk6GJQsqaUBKTNV-1" vertex="1">
          <mxGeometry x="610" y="-500" width="200" height="164" as="geometry">
            <mxRectangle x="194" y="-110" width="160" height="26" as="alternateBounds" />
          </mxGeometry>
        </mxCell>
        <mxCell id="_mDAV8JQPQ2W9e7fXDTG-91" value="String VISITADOS" style="text;align=left;verticalAlign=top;spacingLeft=4;spacingRight=4;overflow=hidden;rotatable=0;points=[[0,0.5],[1,0.5]];portConstraint=eastwest;" parent="_mDAV8JQPQ2W9e7fXDTG-90" vertex="1">
          <mxGeometry y="26" width="200" height="26" as="geometry" />
        </mxCell>
        <mxCell id="_mDAV8JQPQ2W9e7fXDTG-92" value="String TODOS" style="text;align=left;verticalAlign=top;spacingLeft=4;spacingRight=4;overflow=hidden;rotatable=0;points=[[0,0.5],[1,0.5]];portConstraint=eastwest;rounded=0;shadow=0;html=0;" parent="_mDAV8JQPQ2W9e7fXDTG-90" vertex="1">
          <mxGeometry y="52" width="200" height="26" as="geometry" />
        </mxCell>
        <mxCell id="_mDAV8JQPQ2W9e7fXDTG-93" value="PanelMapaVisualizar panelMapa" style="text;align=left;verticalAlign=top;spacingLeft=4;spacingRight=4;overflow=hidden;rotatable=0;points=[[0,0.5],[1,0.5]];portConstraint=eastwest;rounded=0;shadow=0;html=0;" parent="_mDAV8JQPQ2W9e7fXDTG-90" vertex="1">
          <mxGeometry y="78" width="200" height="26" as="geometry" />
        </mxCell>
        <mxCell id="_mDAV8JQPQ2W9e7fXDTG-94" value="JRadioButton radioTodos" style="text;align=left;verticalAlign=top;spacingLeft=4;spacingRight=4;overflow=hidden;rotatable=0;points=[[0,0.5],[1,0.5]];portConstraint=eastwest;rounded=0;shadow=0;html=0;" parent="_mDAV8JQPQ2W9e7fXDTG-90" vertex="1">
          <mxGeometry y="104" width="200" height="26" as="geometry" />
        </mxCell>
        <mxCell id="_mDAV8JQPQ2W9e7fXDTG-100" value="JRadioButton radioVisitados" style="text;align=left;verticalAlign=top;spacingLeft=4;spacingRight=4;overflow=hidden;rotatable=0;points=[[0,0.5],[1,0.5]];portConstraint=eastwest;rounded=0;shadow=0;html=0;" parent="_mDAV8JQPQ2W9e7fXDTG-90" vertex="1">
          <mxGeometry y="130" width="200" height="26" as="geometry" />
        </mxCell>
        <mxCell id="_mDAV8JQPQ2W9e7fXDTG-95" value="" style="line;html=1;strokeWidth=1;align=left;verticalAlign=middle;spacingTop=-1;spacingLeft=3;spacingRight=3;rotatable=0;labelPosition=right;points=[];portConstraint=eastwest;" parent="_mDAV8JQPQ2W9e7fXDTG-90" vertex="1">
          <mxGeometry y="156" width="200" height="8" as="geometry" />
        </mxCell>
        <mxCell id="G6bwOd2PGiNeDQR4WU9C-1" style="edgeStyle=none;curved=1;rounded=0;orthogonalLoop=1;jettySize=auto;html=1;entryX=0;entryY=0.25;entryDx=0;entryDy=0;fontSize=12;startSize=8;endSize=8;" edge="1" parent="WIyWlLk6GJQsqaUBKTNV-1" source="_mDAV8JQPQ2W9e7fXDTG-78" target="_mDAV8JQPQ2W9e7fXDTG-72">
          <mxGeometry relative="1" as="geometry" />
        </mxCell>
        <mxCell id="G6bwOd2PGiNeDQR4WU9C-3" value="implements" style="edgeLabel;html=1;align=center;verticalAlign=middle;resizable=0;points=[];fontSize=12;" vertex="1" connectable="0" parent="G6bwOd2PGiNeDQR4WU9C-1">
          <mxGeometry x="-0.3382" y="1" relative="1" as="geometry">
            <mxPoint as="offset" />
          </mxGeometry>
        </mxCell>
        <mxCell id="G6bwOd2PGiNeDQR4WU9C-45" style="edgeStyle=none;curved=1;rounded=0;orthogonalLoop=1;jettySize=auto;html=1;entryX=0;entryY=0.5;entryDx=0;entryDy=0;fontSize=12;startSize=8;endSize=8;endArrow=block;endFill=0;" edge="1" parent="WIyWlLk6GJQsqaUBKTNV-1" source="G6bwOd2PGiNeDQR4WU9C-16" target="G6bwOd2PGiNeDQR4WU9C-25">
          <mxGeometry relative="1" as="geometry" />
        </mxCell>
        <mxCell id="G6bwOd2PGiNeDQR4WU9C-46" value="extends" style="edgeLabel;html=1;align=center;verticalAlign=middle;resizable=0;points=[];fontSize=12;" vertex="1" connectable="0" parent="G6bwOd2PGiNeDQR4WU9C-45">
          <mxGeometry x="0.6284" y="4" relative="1" as="geometry">
            <mxPoint as="offset" />
          </mxGeometry>
        </mxCell>
        <mxCell id="G6bwOd2PGiNeDQR4WU9C-16" value="PanelMapaVisualizar" style="swimlane;fontStyle=0;align=center;verticalAlign=top;childLayout=stackLayout;horizontal=1;startSize=26;horizontalStack=0;resizeParent=1;resizeLast=0;collapsible=1;marginBottom=0;rounded=0;shadow=0;strokeWidth=1;" vertex="1" parent="WIyWlLk6GJQsqaUBKTNV-1">
          <mxGeometry x="610" y="-730" width="200" height="90" as="geometry">
            <mxRectangle x="194" y="-110" width="160" height="26" as="alternateBounds" />
          </mxGeometry>
        </mxCell>
        <mxCell id="G6bwOd2PGiNeDQR4WU9C-17" value="JLabel labMapa" style="text;align=left;verticalAlign=top;spacingLeft=4;spacingRight=4;overflow=hidden;rotatable=0;points=[[0,0.5],[1,0.5]];portConstraint=eastwest;" vertex="1" parent="G6bwOd2PGiNeDQR4WU9C-16">
          <mxGeometry y="26" width="200" height="26" as="geometry" />
        </mxCell>
        <mxCell id="G6bwOd2PGiNeDQR4WU9C-18" value="List&lt;Restaurante&gt; restaurante" style="text;align=left;verticalAlign=top;spacingLeft=4;spacingRight=4;overflow=hidden;rotatable=0;points=[[0,0.5],[1,0.5]];portConstraint=eastwest;rounded=0;shadow=0;html=0;" vertex="1" parent="G6bwOd2PGiNeDQR4WU9C-16">
          <mxGeometry y="52" width="200" height="26" as="geometry" />
        </mxCell>
        <mxCell id="G6bwOd2PGiNeDQR4WU9C-21" value="" style="line;html=1;strokeWidth=1;align=left;verticalAlign=middle;spacingTop=-1;spacingLeft=3;spacingRight=3;rotatable=0;labelPosition=right;points=[];portConstraint=eastwest;" vertex="1" parent="G6bwOd2PGiNeDQR4WU9C-16">
          <mxGeometry y="78" width="200" height="8" as="geometry" />
        </mxCell>
        <mxCell id="G6bwOd2PGiNeDQR4WU9C-25" value="JPanel" style="swimlane;fontStyle=2;align=center;verticalAlign=top;childLayout=stackLayout;horizontal=1;startSize=26;horizontalStack=0;resizeParent=1;resizeLast=0;collapsible=1;marginBottom=0;rounded=0;shadow=0;strokeWidth=1;" vertex="1" collapsed="1" parent="WIyWlLk6GJQsqaUBKTNV-1">
          <mxGeometry x="1480" y="-698" width="160" height="26" as="geometry">
            <mxRectangle x="470" y="-340" width="160" height="40" as="alternateBounds" />
          </mxGeometry>
        </mxCell>
        <mxCell id="G6bwOd2PGiNeDQR4WU9C-26" value="" style="line;html=1;strokeWidth=1;align=left;verticalAlign=middle;spacingTop=-1;spacingLeft=3;spacingRight=3;rotatable=0;labelPosition=right;points=[];portConstraint=eastwest;" vertex="1" parent="G6bwOd2PGiNeDQR4WU9C-25">
          <mxGeometry y="26" width="160" height="8" as="geometry" />
        </mxCell>
        <mxCell id="G6bwOd2PGiNeDQR4WU9C-31" value="VentanaAgregarRestaurante" style="swimlane;fontStyle=0;align=center;verticalAlign=top;childLayout=stackLayout;horizontal=1;startSize=26;horizontalStack=0;resizeParent=1;resizeLast=0;collapsible=1;marginBottom=0;rounded=0;shadow=0;strokeWidth=1;" vertex="1" parent="WIyWlLk6GJQsqaUBKTNV-1">
          <mxGeometry x="1310" y="-119" width="230" height="139" as="geometry">
            <mxRectangle x="194" y="-110" width="160" height="26" as="alternateBounds" />
          </mxGeometry>
        </mxCell>
        <mxCell id="G6bwOd2PGiNeDQR4WU9C-32" value="PanelEditarRestaurante panelDetalles" style="text;align=left;verticalAlign=top;spacingLeft=4;spacingRight=4;overflow=hidden;rotatable=0;points=[[0,0.5],[1,0.5]];portConstraint=eastwest;" vertex="1" parent="G6bwOd2PGiNeDQR4WU9C-31">
          <mxGeometry y="26" width="230" height="26" as="geometry" />
        </mxCell>
        <mxCell id="G6bwOd2PGiNeDQR4WU9C-33" value="PanelBotonesAgregar panelBotones" style="text;align=left;verticalAlign=top;spacingLeft=4;spacingRight=4;overflow=hidden;rotatable=0;points=[[0,0.5],[1,0.5]];portConstraint=eastwest;rounded=0;shadow=0;html=0;" vertex="1" parent="G6bwOd2PGiNeDQR4WU9C-31">
          <mxGeometry y="52" width="230" height="26" as="geometry" />
        </mxCell>
        <mxCell id="G6bwOd2PGiNeDQR4WU9C-34" value="PanelMapaAgregar panelMapa" style="text;align=left;verticalAlign=top;spacingLeft=4;spacingRight=4;overflow=hidden;rotatable=0;points=[[0,0.5],[1,0.5]];portConstraint=eastwest;rounded=0;shadow=0;html=0;" vertex="1" parent="G6bwOd2PGiNeDQR4WU9C-31">
          <mxGeometry y="78" width="230" height="26" as="geometry" />
        </mxCell>
        <mxCell id="G6bwOd2PGiNeDQR4WU9C-35" value="VentanaPrincipal ventanaPrincipal" style="text;align=left;verticalAlign=top;spacingLeft=4;spacingRight=4;overflow=hidden;rotatable=0;points=[[0,0.5],[1,0.5]];portConstraint=eastwest;rounded=0;shadow=0;html=0;" vertex="1" parent="G6bwOd2PGiNeDQR4WU9C-31">
          <mxGeometry y="104" width="230" height="26" as="geometry" />
        </mxCell>
        <mxCell id="G6bwOd2PGiNeDQR4WU9C-36" value="" style="line;html=1;strokeWidth=1;align=left;verticalAlign=middle;spacingTop=-1;spacingLeft=3;spacingRight=3;rotatable=0;labelPosition=right;points=[];portConstraint=eastwest;" vertex="1" parent="G6bwOd2PGiNeDQR4WU9C-31">
          <mxGeometry y="130" width="230" height="8" as="geometry" />
        </mxCell>
        <mxCell id="G6bwOd2PGiNeDQR4WU9C-41" style="edgeStyle=orthogonalEdgeStyle;rounded=0;orthogonalLoop=1;jettySize=auto;html=1;" edge="1" parent="WIyWlLk6GJQsqaUBKTNV-1">
          <mxGeometry relative="1" as="geometry">
            <mxPoint x="690" y="70" as="sourcePoint" />
            <mxPoint x="1395" y="20" as="targetPoint" />
          </mxGeometry>
        </mxCell>
        <mxCell id="G6bwOd2PGiNeDQR4WU9C-42" style="edgeStyle=orthogonalEdgeStyle;rounded=0;orthogonalLoop=1;jettySize=auto;html=1;endArrow=block;endFill=0;exitX=0.58;exitY=0.007;exitDx=0;exitDy=0;exitPerimeter=0;" edge="1" parent="WIyWlLk6GJQsqaUBKTNV-1" source="G6bwOd2PGiNeDQR4WU9C-31">
          <mxGeometry relative="1" as="geometry">
            <mxPoint x="460" y="-260" as="targetPoint" />
            <mxPoint x="1150" y="-560" as="sourcePoint" />
            <Array as="points">
              <mxPoint x="1400" y="-118" />
              <mxPoint x="1400" y="-540" />
              <mxPoint x="460" y="-540" />
            </Array>
          </mxGeometry>
        </mxCell>
        <mxCell id="G6bwOd2PGiNeDQR4WU9C-43" value="Extends" style="edgeLabel;html=1;align=center;verticalAlign=middle;resizable=0;points=[];" vertex="1" connectable="0" parent="G6bwOd2PGiNeDQR4WU9C-42">
          <mxGeometry x="0.0654" y="-1" relative="1" as="geometry">
            <mxPoint as="offset" />
          </mxGeometry>
        </mxCell>
        <mxCell id="G6bwOd2PGiNeDQR4WU9C-48" value="PanelBotonesAgregar" style="swimlane;fontStyle=0;align=center;verticalAlign=top;childLayout=stackLayout;horizontal=1;startSize=26;horizontalStack=0;resizeParent=1;resizeLast=0;collapsible=1;marginBottom=0;rounded=0;shadow=0;strokeWidth=1;" vertex="1" parent="WIyWlLk6GJQsqaUBKTNV-1">
          <mxGeometry x="1610" y="-360.5" width="230" height="138" as="geometry">
            <mxRectangle x="194" y="-110" width="160" height="26" as="alternateBounds" />
          </mxGeometry>
        </mxCell>
        <mxCell id="G6bwOd2PGiNeDQR4WU9C-49" value="String CREAR" style="text;align=left;verticalAlign=top;spacingLeft=4;spacingRight=4;overflow=hidden;rotatable=0;points=[[0,0.5],[1,0.5]];portConstraint=eastwest;" vertex="1" parent="G6bwOd2PGiNeDQR4WU9C-48">
          <mxGeometry y="26" width="230" height="26" as="geometry" />
        </mxCell>
        <mxCell id="G6bwOd2PGiNeDQR4WU9C-50" value="String CERRAR" style="text;align=left;verticalAlign=top;spacingLeft=4;spacingRight=4;overflow=hidden;rotatable=0;points=[[0,0.5],[1,0.5]];portConstraint=eastwest;rounded=0;shadow=0;html=0;" vertex="1" parent="G6bwOd2PGiNeDQR4WU9C-48">
          <mxGeometry y="52" width="230" height="26" as="geometry" />
        </mxCell>
        <mxCell id="G6bwOd2PGiNeDQR4WU9C-51" value="JButton butNuevo" style="text;align=left;verticalAlign=top;spacingLeft=4;spacingRight=4;overflow=hidden;rotatable=0;points=[[0,0.5],[1,0.5]];portConstraint=eastwest;rounded=0;shadow=0;html=0;" vertex="1" parent="G6bwOd2PGiNeDQR4WU9C-48">
          <mxGeometry y="78" width="230" height="26" as="geometry" />
        </mxCell>
        <mxCell id="G6bwOd2PGiNeDQR4WU9C-87" value="JButton butCerrar" style="text;align=left;verticalAlign=top;spacingLeft=4;spacingRight=4;overflow=hidden;rotatable=0;points=[[0,0.5],[1,0.5]];portConstraint=eastwest;rounded=0;shadow=0;html=0;" vertex="1" parent="G6bwOd2PGiNeDQR4WU9C-48">
          <mxGeometry y="104" width="230" height="26" as="geometry" />
        </mxCell>
        <mxCell id="G6bwOd2PGiNeDQR4WU9C-53" value="" style="line;html=1;strokeWidth=1;align=left;verticalAlign=middle;spacingTop=-1;spacingLeft=3;spacingRight=3;rotatable=0;labelPosition=right;points=[];portConstraint=eastwest;" vertex="1" parent="G6bwOd2PGiNeDQR4WU9C-48">
          <mxGeometry y="130" width="230" height="8" as="geometry" />
        </mxCell>
        <mxCell id="G6bwOd2PGiNeDQR4WU9C-58" style="edgeStyle=orthogonalEdgeStyle;rounded=0;orthogonalLoop=1;jettySize=auto;html=1;startArrow=block;startFill=0;exitX=1;exitY=0.5;exitDx=0;exitDy=0;endArrow=none;endFill=0;entryX=0.5;entryY=0;entryDx=0;entryDy=0;" edge="1" parent="WIyWlLk6GJQsqaUBKTNV-1" source="G6bwOd2PGiNeDQR4WU9C-25" target="G6bwOd2PGiNeDQR4WU9C-48">
          <mxGeometry relative="1" as="geometry">
            <mxPoint x="1590" y="-527" as="targetPoint" />
            <mxPoint x="1755" y="-698" as="sourcePoint" />
            <Array as="points">
              <mxPoint x="1705" y="-685" />
            </Array>
          </mxGeometry>
        </mxCell>
        <mxCell id="G6bwOd2PGiNeDQR4WU9C-59" value="extends" style="edgeLabel;html=1;align=center;verticalAlign=middle;resizable=0;points=[];fontSize=12;" vertex="1" connectable="0" parent="G6bwOd2PGiNeDQR4WU9C-58">
          <mxGeometry x="-0.8564" y="2" relative="1" as="geometry">
            <mxPoint x="32" y="87" as="offset" />
          </mxGeometry>
        </mxCell>
        <mxCell id="G6bwOd2PGiNeDQR4WU9C-64" value="PanelEditarRestaurante" style="swimlane;fontStyle=0;align=center;verticalAlign=top;childLayout=stackLayout;horizontal=1;startSize=26;horizontalStack=0;resizeParent=1;resizeLast=0;collapsible=1;marginBottom=0;rounded=0;shadow=0;strokeWidth=1;" vertex="1" parent="WIyWlLk6GJQsqaUBKTNV-1">
          <mxGeometry x="1890" y="-360.5" width="230" height="120" as="geometry">
            <mxRectangle x="194" y="-110" width="160" height="26" as="alternateBounds" />
          </mxGeometry>
        </mxCell>
        <mxCell id="G6bwOd2PGiNeDQR4WU9C-65" value="JTextField txtNombre" style="text;align=left;verticalAlign=top;spacingLeft=4;spacingRight=4;overflow=hidden;rotatable=0;points=[[0,0.5],[1,0.5]];portConstraint=eastwest;" vertex="1" parent="G6bwOd2PGiNeDQR4WU9C-64">
          <mxGeometry y="26" width="230" height="26" as="geometry" />
        </mxCell>
        <mxCell id="G6bwOd2PGiNeDQR4WU9C-66" value="JComboBox&lt;String&gt; cbbCalificacion" style="text;align=left;verticalAlign=top;spacingLeft=4;spacingRight=4;overflow=hidden;rotatable=0;points=[[0,0.5],[1,0.5]];portConstraint=eastwest;rounded=0;shadow=0;html=0;" vertex="1" parent="G6bwOd2PGiNeDQR4WU9C-64">
          <mxGeometry y="52" width="230" height="26" as="geometry" />
        </mxCell>
        <mxCell id="G6bwOd2PGiNeDQR4WU9C-67" value="JComboBox&lt;String&gt; cbbVisitado" style="text;align=left;verticalAlign=top;spacingLeft=4;spacingRight=4;overflow=hidden;rotatable=0;points=[[0,0.5],[1,0.5]];portConstraint=eastwest;rounded=0;shadow=0;html=0;" vertex="1" parent="G6bwOd2PGiNeDQR4WU9C-64">
          <mxGeometry y="78" width="230" height="26" as="geometry" />
        </mxCell>
        <mxCell id="G6bwOd2PGiNeDQR4WU9C-68" value="" style="line;html=1;strokeWidth=1;align=left;verticalAlign=middle;spacingTop=-1;spacingLeft=3;spacingRight=3;rotatable=0;labelPosition=right;points=[];portConstraint=eastwest;" vertex="1" parent="G6bwOd2PGiNeDQR4WU9C-64">
          <mxGeometry y="104" width="230" height="8" as="geometry" />
        </mxCell>
        <mxCell id="G6bwOd2PGiNeDQR4WU9C-71" style="edgeStyle=orthogonalEdgeStyle;rounded=0;orthogonalLoop=1;jettySize=auto;html=1;startArrow=classic;startFill=1;exitX=0.5;exitY=1;exitDx=0;exitDy=0;endArrow=none;endFill=0;entryX=1;entryY=0.5;entryDx=0;entryDy=0;" edge="1" parent="WIyWlLk6GJQsqaUBKTNV-1" target="G6bwOd2PGiNeDQR4WU9C-33">
          <mxGeometry relative="1" as="geometry">
            <mxPoint x="1840" y="-50" as="targetPoint" />
            <mxPoint x="2005" y="-240" as="sourcePoint" />
            <Array as="points">
              <mxPoint x="2005" y="-50" />
              <mxPoint x="1540" y="-50" />
            </Array>
          </mxGeometry>
        </mxCell>
        <mxCell id="G6bwOd2PGiNeDQR4WU9C-72" style="edgeStyle=orthogonalEdgeStyle;rounded=0;orthogonalLoop=1;jettySize=auto;html=1;startArrow=block;startFill=0;endArrow=none;endFill=0;entryX=0.5;entryY=0;entryDx=0;entryDy=0;" edge="1" parent="WIyWlLk6GJQsqaUBKTNV-1">
          <mxGeometry relative="1" as="geometry">
            <mxPoint x="1985" y="-360.5" as="targetPoint" />
            <mxPoint x="1640" y="-685" as="sourcePoint" />
            <Array as="points">
              <mxPoint x="2000" y="-685" />
              <mxPoint x="2000" y="-360" />
            </Array>
          </mxGeometry>
        </mxCell>
        <mxCell id="G6bwOd2PGiNeDQR4WU9C-73" value="extends" style="edgeLabel;html=1;align=center;verticalAlign=middle;resizable=0;points=[];fontSize=12;" vertex="1" connectable="0" parent="G6bwOd2PGiNeDQR4WU9C-72">
          <mxGeometry x="-0.8564" y="2" relative="1" as="geometry">
            <mxPoint x="310" y="87" as="offset" />
          </mxGeometry>
        </mxCell>
        <mxCell id="G6bwOd2PGiNeDQR4WU9C-74" value="PanelMapaAgregar" style="swimlane;fontStyle=0;align=center;verticalAlign=top;childLayout=stackLayout;horizontal=1;startSize=26;horizontalStack=0;resizeParent=1;resizeLast=0;collapsible=1;marginBottom=0;rounded=0;shadow=0;strokeWidth=1;" vertex="1" parent="WIyWlLk6GJQsqaUBKTNV-1">
          <mxGeometry x="2210" y="-360.5" width="230" height="120" as="geometry">
            <mxRectangle x="194" y="-110" width="160" height="26" as="alternateBounds" />
          </mxGeometry>
        </mxCell>
        <mxCell id="G6bwOd2PGiNeDQR4WU9C-75" value="JLabel labMapa" style="text;align=left;verticalAlign=top;spacingLeft=4;spacingRight=4;overflow=hidden;rotatable=0;points=[[0,0.5],[1,0.5]];portConstraint=eastwest;" vertex="1" parent="G6bwOd2PGiNeDQR4WU9C-74">
          <mxGeometry y="26" width="230" height="26" as="geometry" />
        </mxCell>
        <mxCell id="G6bwOd2PGiNeDQR4WU9C-76" value="int x" style="text;align=left;verticalAlign=top;spacingLeft=4;spacingRight=4;overflow=hidden;rotatable=0;points=[[0,0.5],[1,0.5]];portConstraint=eastwest;rounded=0;shadow=0;html=0;" vertex="1" parent="G6bwOd2PGiNeDQR4WU9C-74">
          <mxGeometry y="52" width="230" height="26" as="geometry" />
        </mxCell>
        <mxCell id="G6bwOd2PGiNeDQR4WU9C-77" value="int y" style="text;align=left;verticalAlign=top;spacingLeft=4;spacingRight=4;overflow=hidden;rotatable=0;points=[[0,0.5],[1,0.5]];portConstraint=eastwest;rounded=0;shadow=0;html=0;" vertex="1" parent="G6bwOd2PGiNeDQR4WU9C-74">
          <mxGeometry y="78" width="230" height="26" as="geometry" />
        </mxCell>
        <mxCell id="G6bwOd2PGiNeDQR4WU9C-78" value="" style="line;html=1;strokeWidth=1;align=left;verticalAlign=middle;spacingTop=-1;spacingLeft=3;spacingRight=3;rotatable=0;labelPosition=right;points=[];portConstraint=eastwest;" vertex="1" parent="G6bwOd2PGiNeDQR4WU9C-74">
          <mxGeometry y="104" width="230" height="8" as="geometry" />
        </mxCell>
        <mxCell id="G6bwOd2PGiNeDQR4WU9C-79" style="edgeStyle=orthogonalEdgeStyle;rounded=0;orthogonalLoop=1;jettySize=auto;html=1;startArrow=block;startFill=0;endArrow=none;endFill=0;entryX=0.5;entryY=0;entryDx=0;entryDy=0;exitX=1;exitY=0.5;exitDx=0;exitDy=0;" edge="1" parent="WIyWlLk6GJQsqaUBKTNV-1" source="G6bwOd2PGiNeDQR4WU9C-25">
          <mxGeometry relative="1" as="geometry">
            <mxPoint x="2305" y="-360.5" as="targetPoint" />
            <mxPoint x="1960" y="-685" as="sourcePoint" />
            <Array as="points">
              <mxPoint x="2320" y="-685" />
              <mxPoint x="2320" y="-360" />
            </Array>
          </mxGeometry>
        </mxCell>
        <mxCell id="G6bwOd2PGiNeDQR4WU9C-80" value="extends" style="edgeLabel;html=1;align=center;verticalAlign=middle;resizable=0;points=[];fontSize=12;" vertex="1" connectable="0" parent="G6bwOd2PGiNeDQR4WU9C-79">
          <mxGeometry x="-0.8564" y="2" relative="1" as="geometry">
            <mxPoint x="606" y="87" as="offset" />
          </mxGeometry>
        </mxCell>
        <mxCell id="G6bwOd2PGiNeDQR4WU9C-81" value="&lt;&lt;interface&gt;&gt;&#xa;MouseListener" style="swimlane;fontStyle=0;align=center;verticalAlign=top;childLayout=stackLayout;horizontal=1;startSize=40;horizontalStack=0;resizeParent=1;resizeLast=0;collapsible=1;marginBottom=0;rounded=0;shadow=0;strokeWidth=1;" vertex="1" collapsed="1" parent="WIyWlLk6GJQsqaUBKTNV-1">
          <mxGeometry x="2560" y="-510" width="160" height="40" as="geometry">
            <mxRectangle x="230" y="-340" width="160" height="40" as="alternateBounds" />
          </mxGeometry>
        </mxCell>
        <mxCell id="G6bwOd2PGiNeDQR4WU9C-82" value="" style="line;html=1;strokeWidth=1;align=left;verticalAlign=middle;spacingTop=-1;spacingLeft=3;spacingRight=3;rotatable=0;labelPosition=right;points=[];portConstraint=eastwest;" vertex="1" parent="G6bwOd2PGiNeDQR4WU9C-81">
          <mxGeometry y="26" width="160" height="8" as="geometry" />
        </mxCell>
        <mxCell id="G6bwOd2PGiNeDQR4WU9C-83" style="edgeStyle=orthogonalEdgeStyle;rounded=0;orthogonalLoop=1;jettySize=auto;html=1;startArrow=classic;startFill=1;exitX=0.5;exitY=1;exitDx=0;exitDy=0;endArrow=none;endFill=0;entryX=1.009;entryY=-0.173;entryDx=0;entryDy=0;entryPerimeter=0;" edge="1" parent="WIyWlLk6GJQsqaUBKTNV-1" target="G6bwOd2PGiNeDQR4WU9C-77">
          <mxGeometry relative="1" as="geometry">
            <mxPoint x="2710" y="-275" as="targetPoint" />
            <mxPoint x="2640" y="-470" as="sourcePoint" />
            <Array as="points">
              <mxPoint x="2640" y="-287" />
            </Array>
          </mxGeometry>
        </mxCell>
        <mxCell id="G6bwOd2PGiNeDQR4WU9C-84" style="edgeStyle=orthogonalEdgeStyle;rounded=0;orthogonalLoop=1;jettySize=auto;html=1;startArrow=classic;startFill=1;exitX=0.5;exitY=1;exitDx=0;exitDy=0;endArrow=none;endFill=0;entryX=1;entryY=0.5;entryDx=0;entryDy=0;" edge="1" parent="WIyWlLk6GJQsqaUBKTNV-1">
          <mxGeometry relative="1" as="geometry">
            <mxPoint x="1890" y="-54.5" as="targetPoint" />
            <mxPoint x="2355" y="-240.5" as="sourcePoint" />
            <Array as="points">
              <mxPoint x="2355" y="-50.5" />
              <mxPoint x="1890" y="-50.5" />
            </Array>
          </mxGeometry>
        </mxCell>
        <mxCell id="G6bwOd2PGiNeDQR4WU9C-86" style="edgeStyle=orthogonalEdgeStyle;rounded=0;orthogonalLoop=1;jettySize=auto;html=1;startArrow=classic;startFill=1;exitX=0.5;exitY=1;exitDx=0;exitDy=0;endArrow=none;endFill=0;entryX=1;entryY=0.5;entryDx=0;entryDy=0;" edge="1" parent="WIyWlLk6GJQsqaUBKTNV-1" source="G6bwOd2PGiNeDQR4WU9C-48" target="G6bwOd2PGiNeDQR4WU9C-33">
          <mxGeometry relative="1" as="geometry">
            <mxPoint x="1560" y="-34" as="targetPoint" />
            <mxPoint x="2025" y="-220" as="sourcePoint" />
            <Array as="points">
              <mxPoint x="1725" y="-50" />
              <mxPoint x="1540" y="-50" />
            </Array>
          </mxGeometry>
        </mxCell>
        <mxCell id="G6bwOd2PGiNeDQR4WU9C-89" style="edgeStyle=orthogonalEdgeStyle;rounded=0;orthogonalLoop=1;jettySize=auto;html=1;entryX=1;entryY=0.5;entryDx=0;entryDy=0;exitX=0;exitY=0.5;exitDx=0;exitDy=0;fillColor=#f8cecc;strokeColor=#b85450;" edge="1" parent="WIyWlLk6GJQsqaUBKTNV-1" source="G6bwOd2PGiNeDQR4WU9C-50" target="_mDAV8JQPQ2W9e7fXDTG-72">
          <mxGeometry relative="1" as="geometry">
            <mxPoint x="1280" y="-408" as="sourcePoint" />
            <mxPoint x="1490" y="-230" as="targetPoint" />
            <Array as="points">
              <mxPoint x="1610" y="-220" />
            </Array>
          </mxGeometry>
        </mxCell>
        <mxCell id="G6bwOd2PGiNeDQR4WU9C-90" value="implements" style="edgeLabel;html=1;align=center;verticalAlign=middle;resizable=0;points=[];fontColor=#FF3333;" vertex="1" connectable="0" parent="G6bwOd2PGiNeDQR4WU9C-89">
          <mxGeometry x="-0.1635" y="-1" relative="1" as="geometry">
            <mxPoint x="-1" as="offset" />
          </mxGeometry>
        </mxCell>
      </root>
    </mxGraphModel>
  </diagram>
</mxfile>
